# xmcd
#
# Track frame offsets: 
#        150
#        18182
#        34227
#        47982
#        67657
#        85105
#        101382
#        124037
#        139185
#        158637
#        174155
#        188197
#        206642
#        225732
#
# Disc length: 3250 seconds
#
# Revision: 4
# Processed by: cddbd v1.5.2PL0 Copyright (c) Steve Scherf et al.
# Submitted via: ExactAudioCopy v0.99pb5
#
DISCID=ac0cb00e
DTITLE=Studebaker John and The Hawks - Tremoluxe
DYEAR=1996
DGENRE=Blues
TTITLE0=Two Time Boogie
TTITLE1=Cold, Cold Heart
TTITLE2=Gonna Start To Walkin'
TTITLE3=Missing You
TTITLE4=Since Day One
TTITLE5=Last Night
TTITLE6=Voodoo Woman
TTITLE7=We're Gonna Rock
TTITLE8=My Way Or The Highway
TTITLE9=100% Satisfaction
TTITLE10=Talk To Me Baby
TTITLE11=Rock My Baby Right
TTITLE12=Hey, Hey, Hey
TTITLE13=Boogie Twist
EXTD=YEAR: 1996
EXTT0=
EXTT1=
EXTT2=
EXTT3=
EXTT4=
EXTT5=
EXTT6=
EXTT7=
EXTT8=
EXTT9=
EXTT10=
EXTT11=
EXTT12=
EXTT13=
PLAYORDER=
